<svg width="1024" height="1024" viewBox="0 0 1024 1024" fill="none" xmlns="http://www.w3.org/2000/svg">
<rect width="1024" height="1024" rx="180" fill="black"/>
<path d="M822.568 362.464C759.593 221.02 569.556 168.238 398.109 244.571C226.662 320.904 138.728 497.447 201.703 638.891C264.678 780.335 454.714 833.117 626.161 756.784C628.583 755.706 630.987 754.607 633.375 753.489L694.749 814.864L748.813 760.8L535.275 547.262H745.124C735.177 568.356 721.667 588.993 704.584 608.286L758.433 662.135C809.452 606.085 839.55 538.251 842.667 470.804H458.817L404.754 524.868L575.031 695.145C436.653 746.993 310.164 694.521 271.55 607.793C231.08 516.895 283.163 379.441 429.207 314.418C575.251 249.395 712.25 302.664 752.72 393.562C752.829 393.807 752.937 394.053 753.045 394.299L753.066 394.347H834.084C831.051 383.564 827.222 372.918 822.568 362.464Z" fill="white"/>
</svg>
